<svg xmlns="http://www.w3.org/2000/svg" viewBox="0 0 800 500">
  <defs>
    <linearGradient id="bg" x1="0" y1="0" x2="1" y2="1">
      <stop offset="0" stop-color="#ffb74d" />
      <stop offset="1" stop-color="#805ad5" />
    </linearGradient>
  </defs>
  <rect width="800" height="500" rx="48" fill="url(#bg)" />
  <g opacity="0.12" fill="#fff">
    <circle cx="140" cy="120" r="92" />
    <circle cx="720" cy="420" r="140" />
  </g>
  <g fill="none" stroke="#fff" stroke-width="22" stroke-linecap="round" stroke-linejoin="round" opacity="0.92">
    <path d="M300 210h220v130a80 80 0 0 1-80 80h-60a80 80 0 0 1-80-80V210z" />
    <path d="M520 235h40a55 55 0 0 1 0 110h-40" />
    <path d="M340 190c0-25 20-35 20-55s-20-30-20-55" />
    <path d="M400 190c0-25 20-35 20-55s-20-30-20-55" />
    <path d="M460 190c0-25 20-35 20-55s-20-30-20-55" />
  </g>
  <text x="50%" y="88%" text-anchor="middle" fill="#fff" opacity="0.92"
    font-family="Inter, Segoe UI, Arial, sans-serif" font-size="30" font-weight="800">
    Ceramic Coffee Mug
  </text>
</svg>
