<svg xmlns="http://www.w3.org/2000/svg" viewBox="0 0 800 500">
  <defs>
    <linearGradient id="bg" x1="0" y1="0" x2="1" y2="1">
      <stop offset="0" stop-color="#805ad5" />
      <stop offset="1" stop-color="#ff7a59" />
    </linearGradient>
  </defs>
  <rect width="800" height="500" rx="48" fill="url(#bg)" />
  <g opacity="0.12" fill="#fff">
    <circle cx="140" cy="120" r="92" />
    <circle cx="720" cy="420" r="140" />
  </g>
  <g fill="none" stroke="#fff" stroke-width="22" stroke-linecap="round" stroke-linejoin="round" opacity="0.92">
    <path d="M270 165h240a50 50 0 0 1 50 50v200a0 0 0 0 1 0 0H320a50 50 0 0 0-50 50V215a50 50 0 0 1 50-50z" />
    <path d="M320 165v300" />
    <path d="M360 230h150" />
    <path d="M360 275h150" />
    <path d="M360 320h120" />
  </g>
  <text x="50%" y="88%" text-anchor="middle" fill="#fff" opacity="0.92"
    font-family="Inter, Segoe UI, Arial, sans-serif" font-size="30" font-weight="800">
    Modern PHP Cookbook
  </text>
</svg>
